<svg width="55" height="63" viewBox="0 0 55 63" fill="none" xmlns="http://www.w3.org/2000/svg">
<path fill-rule="evenodd" clip-rule="evenodd" d="M27.5 0.75C28.5194 0.75 29.4971 1.15497 30.2179 1.87581C30.9388 2.59665 31.3437 3.57432 31.3437 4.59375V49.1274L47.8411 32.6224C48.1985 32.265 48.6227 31.9815 49.0897 31.7881C49.5566 31.5947 50.0571 31.4951 50.5625 31.4951C51.0679 31.4951 51.5683 31.5947 52.0353 31.7881C52.5022 31.9815 52.9265 32.265 53.2838 32.6224C53.6412 32.9797 53.9247 33.404 54.1181 33.8709C54.3115 34.3379 54.4111 34.8383 54.4111 35.3437C54.4111 35.8492 54.3115 36.3496 54.1181 36.8165C53.9247 37.2835 53.6412 37.7077 53.2838 38.0651L30.2213 61.1276C29.8643 61.4856 29.4401 61.7696 28.9732 61.9633C28.5062 62.1571 28.0056 62.2569 27.5 62.2569C26.9944 62.2569 26.4938 62.1571 26.0268 61.9633C25.5598 61.7696 25.1356 61.4856 24.7786 61.1276L1.7161 38.0651C1.35872 37.7077 1.07524 37.2835 0.881825 36.8165C0.688415 36.3496 0.588867 35.8492 0.588867 35.3437C0.588867 34.8383 0.688415 34.3379 0.881825 33.8709C1.07524 33.404 1.35872 32.9797 1.7161 32.6224C2.43785 31.9006 3.41676 31.4951 4.43747 31.4951C4.94288 31.4951 5.44334 31.5947 5.91027 31.7881C6.37721 31.9815 6.80147 32.265 7.15885 32.6224L23.6562 49.1274V4.59375C23.6562 3.57432 24.0612 2.59665 24.782 1.87581C25.5029 1.15497 26.4805 0.75 27.5 0.75Z" fill="url(#paint0_linear_10_32)"/>
<defs>
<linearGradient id="paint0_linear_10_32" x1="27.5" y1="0.75" x2="27.5" y2="62.2569" gradientUnits="userSpaceOnUse">
<stop stop-color="#004359"/>
<stop offset="1" stop-color="#00A8E8"/>
</linearGradient>
</defs>
</svg>
